Coordinates
version=1
nRows=39
nColumns=18
inDegrees=yes

Units are S.I. units (second, meters, Newtons, ...)
Angles are in degrees.

endheader
time	ground_thorax_rot_x	ground_thorax_rot_y	ground_thorax_rot_z	ground_thorax_tx	ground_thorax_ty	ground_thorax_tz	clav_prot	clav_elev	scapula_abduction	scapula_elevation	scapula_upward_rot	scapula_winging	plane_elv	shoulder_elv	axial_rot	elbow_flexion	pro_sup
      5.79000000	      1.66405185	     -3.18213757	     -8.58467998	     -0.00423131	      0.00403036	     -0.00078352	    -29.15807714	     -4.53929511	    -23.56358233	     -4.67587522	     13.11535372	      5.04763616	     -8.69505941	     33.38812828	     -0.36838120	      0.00000000	     34.32000000
      5.80000000	      1.50956340	     -3.17073288	     -8.48861231	     -0.00423131	      0.00403036	     -0.00078352	    -29.07740381	     -4.71963252	    -23.65649455	     -4.68330792	     12.63866076	      5.24304435	     -9.21865199	     33.19212354	      0.27470119	      0.00000000	     34.32000000
      5.81000000	      1.60788172	     -3.23826072	     -8.53229372	     -0.00423131	      0.00403036	     -0.00078352	    -28.99274602	     -4.74341625	    -23.48453024	     -4.70690772	     12.68175264	      5.25427732	     -9.75863041	     32.67006235	      0.67594363	      0.00000000	     34.32000000
      5.82000000	      1.68042349	     -3.20387246	     -8.53694360	     -0.00423131	      0.00403036	     -0.00078352	    -28.97440365	     -4.73378365	    -23.47304130	     -4.69066026	     12.65292683	      5.26071572	    -10.24072197	     32.24221031	      0.99714188	      0.00000000	     34.32000000
      5.83000000	      1.60922834	     -3.09889918	     -8.49451590	     -0.00423131	      0.00403036	     -0.00078352	    -29.01018938	     -4.79572095	    -23.64610681	     -4.68095657	     12.42632531	      5.33313847	    -10.56975855	     31.91847131	      1.41615234	      0.00000000	     34.32000000
      5.84000000	      1.50610051	     -2.96118997	     -8.40524673	     -0.00423131	      0.00403036	     -0.00078352	    -29.07772739	     -4.90357418	    -23.93483431	     -4.67364969	     12.06774671	      5.44989248	    -10.66128122	     31.70638854	      1.94758741	      0.00000000	     34.32000000
      5.85000000	      1.68385548	     -2.95945776	     -8.42235553	     -0.00423131	      0.00403036	     -0.00078352	    -29.05691802	     -4.92273823	    -23.94078561	     -4.66547873	     11.98717793	      5.47983478	    -10.67486873	     31.59130180	      1.95537505	      0.00000000	     34.32000000
      5.86000000	      1.39750757	     -2.67069568	     -8.57037175	     -0.00423131	      0.00403036	     -0.00078352	    -29.22477007	     -5.41219726	    -24.44899464	     -4.88653169	     11.35954729	      5.78779084	    -10.95055148	     31.27603813	      3.20880849	      0.00000000	     34.32000000
      5.87000000	      1.53195257	     -2.61213013	     -8.44195227	     -0.00423131	      0.00403036	     -0.00078352	    -29.18115129	     -5.29769241	    -24.50105326	     -4.74927906	     11.18777639	      5.79314685	    -11.25788777	     30.88971898	      3.56325129	      0.00000000	     34.32000000
      5.88000000	      1.55747437	     -2.51375471	     -8.43043853	     -0.00423131	      0.00403036	     -0.00078352	    -29.17042637	     -5.45939114	    -24.59195743	     -4.80109401	     10.91954488	      5.92026850	    -11.67681443	     30.53362115	      3.99868960	      0.00000000	     34.32000000
      5.89000000	      1.59595483	     -2.47052903	     -8.47082883	     -0.00423131	      0.00403036	     -0.00078352	    -29.14715637	     -5.60760739	    -24.56267550	     -4.89119072	     10.83582744	      5.99953307	    -12.14022057	     30.12370737	      4.36188356	      0.00000000	     34.32000000
      5.90000000	      1.74722785	     -2.49966658	     -8.48343241	     -0.00423131	      0.00403036	     -0.00078352	    -29.12599399	     -5.61949930	    -24.57348994	     -4.87524340	     10.74780569	      6.02904034	    -12.16068677	     29.97720399	      4.37214644	      0.00000000	     34.32000000
      5.91000000	      1.47676116	     -2.43560975	     -8.49519507	     -0.00423131	      0.00403036	     -0.00078352	    -29.19684408	     -5.73951418	    -24.71286197	     -4.94782387	     10.65502705	      6.08568961	    -12.86541263	     29.28978552	      4.97134410	      0.00000000	     34.32000000
      5.92000000	      1.56338814	     -2.48053005	     -8.54394974	     -0.00423131	      0.00403036	     -0.00078352	    -29.18491490	     -5.72311847	    -24.73531404	     -4.91570563	     10.58590785	      6.09810972	    -12.88274141	     29.18588339	      4.98329360	      0.00000000	     34.32000000
      5.93000000	      1.47752960	     -2.36787058	     -8.48188962	     -0.00423131	      0.00403036	     -0.00078352	    -29.23161081	     -5.68179940	    -24.82681235	     -4.88513242	     10.57877374	      6.07645077	    -13.61308527	     28.76908504	      5.38627152	      0.00000000	     34.32000000
      5.94000000	      1.46368255	     -2.36359016	     -8.47812093	     -0.00423131	      0.00403036	     -0.00078352	    -29.20036790	     -5.71674093	    -24.78613835	     -4.90020178	     10.54277605	      6.10325356	    -14.15040484	     28.47944054	      5.87030398	      0.00000000	     34.32000000
      5.95000000	      1.59754066	     -2.40698002	     -8.51405069	     -0.00423131	      0.00403036	     -0.00078352	    -29.18087341	     -5.71461704	    -24.79786814	     -4.87585671	     10.46377061	      6.12470494	    -14.17698341	     28.34535379	      5.88144708	      0.00000000	     34.32000000
      5.96000000	      1.51263731	     -2.32502596	     -8.45145007	     -0.00423131	      0.00403036	     -0.00078352	    -29.15799248	     -5.76607562	    -24.74346592	     -4.91582565	     10.47054990	      6.14616857	    -15.73202215	     27.88462956	      6.48349030	      0.00000000	     34.32000000
      5.97000000	      1.49416617	     -2.40517192	     -8.49146447	     -0.00423131	      0.00403036	     -0.00078352	    -29.13375012	     -5.82163952	    -24.67320866	     -4.96517043	     10.50057440	      6.16422818	    -16.06911914	     27.36729838	      6.85891047	      0.00000000	     34.32000000
      5.98000000	      1.47984310	     -2.37636381	     -8.48507713	     -0.00423131	      0.00403036	     -0.00078352	    -29.13647403	     -5.87499463	    -24.71823562	     -4.98028908	     10.40326063	      6.20752356	    -16.62041887	     27.00372920	      7.39869741	      0.00000000	     34.32000000
      5.99000000	      1.45687111	     -2.30600338	     -8.47902629	     -0.00423131	      0.00403036	     -0.00078352	    -29.17445767	     -5.90655941	    -24.80749579	     -4.99066784	     10.34162258	      6.22840233	    -17.09223202	     26.54976209	      7.94839306	      0.00000000	     34.32000000
      6.00000000	      1.34965696	     -2.25260724	     -8.43958553	     -0.00423131	      0.00403036	     -0.00078352	    -29.16522189	     -5.99630198	    -24.87726943	     -5.00667681	     10.14671358	      6.31087730	    -17.49862884	     26.24378260	      8.57350266	      0.00000000	     34.32000000
      6.01000000	      1.45451389	     -2.23798857	     -8.44028591	     -0.00423131	      0.00403036	     -0.00078352	    -29.14909760	     -5.99705420	    -24.88137320	     -4.99063947	     10.08977219	      6.32741929	    -17.50350998	     26.13277018	      8.58674994	      0.00000000	     34.32000000
      6.02000000	      1.63522740	     -2.14761390	     -8.41895453	     -0.00423131	      0.00403036	     -0.00078352	    -29.19203165	     -5.78392710	    -24.83426315	     -4.91304829	     10.40043213	      6.16455193	    -17.99026260	     25.71365077	      8.34275488	      0.00000000	     34.32000000
      6.03000000	      1.43541940	     -2.04248660	     -8.41735004	     -0.00423131	      0.00403036	     -0.00078352	    -29.21702828	     -5.97159970	    -24.99993225	     -4.97584996	     10.09037081	      6.30665097	    -18.37262385	     25.52453762	      8.92946737	      0.00000000	     34.32000000
      6.04000000	      1.43952429	     -2.03705720	     -8.41441653	     -0.00423131	      0.00403036	     -0.00078352	    -29.20440543	     -5.91397312	    -24.99047559	     -4.93162969	     10.09488502	      6.28544729	    -18.79646577	     25.08900020	      9.26850504	      0.00000000	     34.32000000
      6.05000000	      1.39174976	     -2.09660844	     -8.39031650	     -0.00423131	      0.00403036	     -0.00078352	    -29.16729291	     -5.94153278	    -24.97095244	     -4.92589504	     10.00492138	      6.32270084	    -19.38175761	     24.63357773	      9.47075854	      0.00000000	     34.32000000
      6.06000000	      1.53475641	     -2.13260906	     -8.43324074	     -0.00423131	      0.00403036	     -0.00078352	    -29.14754648	     -5.93795781	    -24.98845914	     -4.89714044	      9.91446226	      6.34648025	    -19.39813675	     24.50359257	      9.48997812	      0.00000000	     34.32000000
      6.07000000	      1.32015827	     -1.98621488	     -8.47121078	     -0.00423131	      0.00403036	     -0.00078352	    -29.22071079	     -6.20414634	    -25.15044066	     -5.05613880	      9.72268940	      6.48384911	    -20.34225237	     24.10366419	     10.71101862	      0.00000000	     34.32000000
      6.08000000	      1.64350273	     -2.14407504	     -8.41992501	     -0.00423131	      0.00403036	     -0.00078352	    -29.07660095	     -5.89217527	    -24.76205839	     -4.91641198	     10.13389981	      6.28763156	    -20.64843349	     23.66862192	     10.79856505	      0.00000000	     34.32000000
      6.09000000	      1.75482962	     -2.31037427	     -8.34988972	     -0.00423131	      0.00403036	     -0.00078352	    -28.89469427	     -5.74618531	    -24.41408791	     -4.83089138	     10.28160886	      6.22407026	    -21.05214840	     23.40538328	     10.92961481	      0.00000000	     34.32000000
      6.10000000	      1.77000052	     -2.44937620	     -8.26075076	     -0.00423131	      0.00403036	     -0.00078352	    -28.71226111	     -5.68653813	    -24.18473317	     -4.74231276	     10.17196025	      6.25439620	    -21.18149666	     23.28990084	     10.99262847	      0.00000000	     34.32000000
      6.11000000	      1.86874085	     -2.58278055	     -8.20648128	     -0.00423131	      0.00403036	     -0.00078352	    -28.54631731	     -5.62103732	    -23.97807175	     -4.65340042	     10.07341229	      6.27709343	    -21.23977239	     23.26982197	     10.93224096	      0.00000000	     34.32000000
      6.12000000	      1.94024336	     -2.56345864	     -8.21722916	     -0.00423131	      0.00403036	     -0.00078352	    -28.54618930	     -5.64534117	    -24.00575853	     -4.65501331	     10.01074791	      6.30119148	    -21.24040790	     23.18595758	     10.95390558	      0.00000000	     34.32000000
      6.13000000	      1.44933380	     -2.12996338	     -8.30187291	     -0.00423131	      0.00403036	     -0.00078352	    -28.88123857	     -6.08502652	    -24.74775448	     -4.87286813	      9.47625902	      6.54719309	    -21.75048740	     22.89240557	     10.94688662	      0.00000000	     34.32000000
      6.14000000	      1.52780508	     -2.11056450	     -8.30366743	     -0.00423131	      0.00403036	     -0.00078352	    -28.87138366	     -6.10431798	    -24.74850155	     -4.87584861	      9.43528644	      6.56593874	    -21.74090598	     22.83355395	     10.97019166	      0.00000000	     34.32000000
      6.15000000	      1.44084006	     -2.03099551	     -8.35935870	     -0.00423131	      0.00403036	     -0.00078352	    -28.95300341	     -6.15587169	    -24.90127534	     -4.90661115	      9.38095671	      6.58643059	    -21.85827860	     22.49805477	     10.89309359	      0.00000000	     34.32000000
      6.16000000	      1.42854728	     -2.25248084	     -8.22513161	     -0.00423131	      0.00403036	     -0.00078352	    -28.68703573	     -6.14254345	    -24.55849798	     -4.82841208	      9.20077778	      6.66302727	    -22.12079105	     22.61486304	     10.41482436	      0.00000000	     34.32000000
      6.17000000	      1.25256307	     -1.81107324	     -8.46445941	     -0.00423131	      0.00403036	     -0.00078352	    -29.15555390	     -6.42990929	    -25.36113435	     -5.03739375	      9.03101555	      6.74525790	    -22.02480568	     22.13172463	     13.35257024	      0.00000000	     34.32000000
